<svg width="512" height="512" viewBox="0 0 512 512" xmlns="http://www.w3.org/2000/svg">
  <defs>
    <linearGradient id="bgGradient" x1="0%" y1="0%" x2="100%" y2="100%">
      <stop offset="0%" style="stop-color:#3B82F6;stop-opacity:1" />
      <stop offset="100%" style="stop-color:#06B6D4;stop-opacity:1" />
    </linearGradient>
    <linearGradient id="letterGradient" x1="0%" y1="0%" x2="100%" y2="100%">
      <stop offset="0%" style="stop-color:#FFFFFF;stop-opacity:1" />
      <stop offset="100%" style="stop-color:#F0F9FF;stop-opacity:1" />
    </linearGradient>
  </defs>
  
  <!-- Background Circle -->
  <circle cx="256" cy="256" r="240" fill="url(#bgGradient)"/>
  
  <!-- Network Connection Lines -->
  <g stroke="rgba(255,255,255,0.3)" stroke-width="2" fill="none">
    <line x1="150" y1="180" x2="200" y2="150"/>
    <line x1="320" y1="160" x2="370" y2="190"/>
    <line x1="180" y1="320" x2="230" y2="350"/>
    <line x1="330" y1="340" x2="380" y2="310"/>
  </g>
  
  <!-- Network Nodes -->
  <g fill="rgba(255,255,255,0.6)">
    <circle cx="150" cy="180" r="4"/>
    <circle cx="370" cy="190" r="4"/>
    <circle cx="180" cy="320" r="4"/>
    <circle cx="380" cy="310" r="4"/>
  </g>
  
  <!-- Main 'R' Letter -->
  <g fill="url(#letterGradient)" stroke="none">
    <path d="M 180 160 L 180 350 M 180 160 L 280 160 Q 320 160 320 200 Q 320 240 280 240 L 180 240 M 240 240 L 320 350" 
          stroke="url(#letterGradient)" 
          stroke-width="24" 
          fill="none" 
          stroke-linecap="round" 
          stroke-linejoin="round"/>
  </g>
  
  <!-- Signal Waves -->
  <g stroke="rgba(255,255,255,0.4)" stroke-width="3" fill="none">
    <circle cx="256" cy="256" r="100"/>
    <circle cx="256" cy="256" r="120"/>
    <circle cx="256" cy="256" r="140"/>
  </g>
  
  <!-- Floating Particles -->
  <g fill="rgba(255,255,255,0.7)">
    <circle cx="120" cy="120" r="2"/>
    <circle cx="390" cy="130" r="2"/>
    <circle cx="130" cy="380" r="2"/>
    <circle cx="380" cy="370" r="2"/>
  </g>
</svg>